<svg width="40" height="40" viewBox="0 0 40 40" fill="none" xmlns="http://www.w3.org/2000/svg">
<path d="M39.375 19.9634C39.3948 30.6384 30.6891 39.3674 20.0141 39.3749C15.4035 39.3782 11.1685 37.771 7.84047 35.085C6.97508 34.3866 6.91039 33.0896 7.6968 32.3032L8.57703 31.423C9.24961 30.7504 10.3234 30.6768 11.0685 31.268C13.5205 33.2137 16.6235 34.375 20 34.375C27.9457 34.375 34.375 27.9445 34.375 20C34.375 12.0543 27.9445 5.625 20 5.625C16.1864 5.625 12.7227 7.10695 10.1509 9.52594L14.1161 13.4911C14.9036 14.2786 14.3459 15.625 13.2323 15.625H1.875C1.18461 15.625 0.625 15.0654 0.625 14.375V3.01773C0.625 1.90414 1.97141 1.34641 2.75891 2.13383L6.61609 5.99102C10.0945 2.66687 14.8088 0.625 20 0.625C30.6883 0.625 39.3552 9.27969 39.375 19.9634ZM25.2413 26.1184L26.0087 25.1316C26.6445 24.3142 26.4972 23.1362 25.6798 22.5005L22.5 20.0273V11.875C22.5 10.8395 21.6605 10 20.625 10H19.375C18.3395 10 17.5 10.8395 17.5 11.875V22.4727L22.6101 26.4473C23.4275 27.083 24.6055 26.9358 25.2413 26.1184Z" fill="#0007B0"/>
</svg>
