<svg width="34" height="34" viewBox="0 0 34 34" fill="none" xmlns="http://www.w3.org/2000/svg">
<path d="M32.6833 16.0167L17.9667 1.30001C17.35 0.683343 16.5 0.333344 15.6167 0.333344H3.66668C1.83334 0.333344 0.333344 1.83334 0.333344 3.66668V15.6167C0.333344 16.5 0.683343 17.35 1.31668 17.9667L16.0333 32.6833C17.3333 33.9833 19.45 33.9833 20.75 32.6833L32.7 20.7333C34 19.4333 34 17.3333 32.6833 16.0167ZM7.83334 10.3333C6.45001 10.3333 5.33334 9.21668 5.33334 7.83334C5.33334 6.45001 6.45001 5.33334 7.83334 5.33334C9.21668 5.33334 10.3333 6.45001 10.3333 7.83334C10.3333 9.21668 9.21668 10.3333 7.83334 10.3333Z" fill="#C61AB4"/>
</svg>
